<?xml version="1.0" encoding="utf-8"?>
<!-- Generator: Adobe Illustrator 24.0.0, SVG Export Plug-In . SVG Version: 6.00 Build 0)  -->
<svg version="1.1" id="Layer_1" xmlns="http://www.w3.org/2000/svg" xmlns:xlink="http://www.w3.org/1999/xlink" x="0px" y="0px"
	 viewBox="0 0 167 30.6" style="enable-background:new 0 0 167 30.6;" xml:space="preserve">
<style type="text/css">
	.st0{fill:#FFFFFF;}
	.st1{font-family:'Arial-BoldMT';}
	.st2{font-size:20.8774px;}
	.st3{fill:url(#Subtraction_1_1_);}
</style>
<g id="Group_2" transform="translate(-372.804 -44.291)">
	<text transform="matrix(0.8261 0 0 1 407.5149 68.789)" class="st0 st1 st2">CAMPUS CLAN</text>
	
		<linearGradient id="Subtraction_1_1_" gradientUnits="userSpaceOnUse" x1="-415.551" y1="599.8282" x2="-414.776" y2="599.1031" gradientTransform="matrix(7.9035 4.5631 9.6265 -16.6736 -2108.845 11949.8369)">
		<stop  offset="0" style="stop-color:#FE8464"/>
		<stop  offset="1" style="stop-color:#FE6E9A"/>
	</linearGradient>
	<path id="Subtraction_1" class="st3" d="M378.2,69.2L378.2,69.2c-2.1-1.2-3.6-3.3-4.2-5.7c-0.6-2.5-0.2-5.1,1.1-7.2
		c1.2-2.2,3.3-3.8,5.7-4.6c2.3-0.7,4.9-0.4,7,0.8L378.2,69.2L378.2,69.2z"/>
	<path id="Subtraction_2" class="st0" d="M381.4,70.5L381.4,70.5c6.5,3.8,14.9,1.5,18.7-5c1.8-3.1,2.3-6.9,1.4-10.4
		c-0.9-3.5-3.2-6.5-6.4-8.3L381.4,70.5z"/>
</g>
</svg>
